<svg width="58" height="58" viewBox="0 0 58 58" fill="none" xmlns="http://www.w3.org/2000/svg">
<path fill-rule="evenodd" clip-rule="evenodd" d="M49.3278 8.42867C43.9 2.99628 36.6814 0.00305336 28.9908 0C13.1444 0 0.2474 12.8921 0.241059 28.7385C0.238945 33.8039 1.56285 38.7484 4.07858 43.1067L0 58L15.2406 54.0035C19.4397 56.293 24.1676 57.4996 28.9793 57.5017H28.9911C44.8358 57.5017 57.734 44.608 57.7404 28.7614C57.7434 21.082 54.7559 13.8611 49.3278 8.42867ZM28.9911 52.6475H28.9813C24.6936 52.6459 20.488 51.4944 16.8193 49.3179L15.9467 48.8002L6.90278 51.1718L9.31681 42.3569L8.74857 41.4532C6.35662 37.6498 5.09323 33.2538 5.09511 28.7403C5.10036 15.5694 15.8199 4.85405 29.0005 4.85405C35.3829 4.85648 41.3826 7.3445 45.8941 11.8597C50.4057 16.3749 52.8888 22.3767 52.8864 28.7596C52.8809 41.9314 42.1615 52.6475 28.9911 52.6475ZM42.0982 34.7569C41.3798 34.3975 37.8481 32.6601 37.1896 32.4205C36.5311 32.1808 36.0523 32.061 35.5733 32.78C35.0945 33.4988 33.7178 35.1164 33.2987 35.5956C32.8797 36.0749 32.4607 36.1349 31.7423 35.7754C31.024 35.416 28.7094 34.6577 25.9655 32.2111C23.8301 30.3071 22.3883 27.9552 21.9693 27.2363C21.5503 26.5174 21.9247 26.1287 22.2843 25.7707C22.6074 25.4489 23.0027 24.932 23.3619 24.5126C23.721 24.0933 23.8407 23.7937 24.0801 23.3145C24.3196 22.8352 24.1999 22.4158 24.0203 22.0564C23.8407 21.6969 22.4041 18.1622 21.8054 16.7244C21.2224 15.3241 20.6301 15.5136 20.1892 15.4916C19.7706 15.4708 19.2913 15.4663 18.8124 15.4663C18.3335 15.4663 17.5553 15.6461 16.8968 16.365C16.2384 17.0839 14.3827 18.8213 14.3827 22.3559C14.3827 25.8905 16.9567 29.3053 17.3159 29.7846C17.675 30.2639 22.3813 37.5175 29.5873 40.628C31.3012 41.3679 32.6393 41.8097 33.6825 42.1409C35.4034 42.6873 36.9694 42.6101 38.2072 42.4253C39.5873 42.2192 42.4572 40.688 43.0559 39.0105C43.6545 37.3331 43.6545 35.8953 43.4749 35.5957C43.2954 35.2962 42.8165 35.1164 42.0982 34.7569Z" fill="#A08355"/>
</svg>
